<?xml version="1.0" encoding="UTF-8" standalone="no"?>
<svg
   xmlns:dc="http://purl.org/dc/elements/1.1/"
   xmlns:cc="http://creativecommons.org/ns#"
   xmlns:rdf="http://www.w3.org/1999/02/22-rdf-syntax-ns#"
   xmlns:svg="http://www.w3.org/2000/svg"
   xmlns="http://www.w3.org/2000/svg"
   viewBox="0 0 1066.6667 800"
   height="800"
   width="1066.6667"
   xml:space="preserve"
   id="svg2"
   version="1.1"><metadata
     id="metadata8"><rdf:RDF><cc:Work
         rdf:about=""><dc:format>image/svg+xml</dc:format><dc:type
           rdf:resource="http://purl.org/dc/dcmitype/StillImage" /></cc:Work></rdf:RDF></metadata><defs
     id="defs6"><clipPath
       id="clipPath34"
       clipPathUnits="userSpaceOnUse"><path
         id="path32"
         d="M 0,600 H 800 V 0 H 0 Z" /></clipPath></defs><g
     transform="matrix(1.3333333,0,0,-1.3333333,0,800)"
     id="g10"><g
       transform="translate(360.6938,289.0127)"
       id="g12"><path
         id="path14"
         style="fill:#2053a3;fill-opacity:1;fill-rule:nonzero;stroke:none"
         d="m 0,0 v 16.118 h -6.496 v 6.7 h 22.099 v -6.7 H 9.302 V 0 Z" /></g><g
       transform="translate(404.7871,289.0127)"
       id="g16"><path
         id="path18"
         style="fill:#2053a3;fill-opacity:1;fill-rule:nonzero;stroke:none"
         d="m 0,0 v 16.118 h -6.492 v 6.7 h 22.099 v -6.7 H 9.302 V 0 Z" /></g><g
       transform="translate(374.1851,288.9834)"
       id="g20"><path
         id="path22"
         style="fill:#2053a3;fill-opacity:1;fill-rule:nonzero;stroke:none"
         d="M 0,0 8.36,22.819 17.871,22.822 26.745,0 H 17.784 L 13.168,13.795 8.567,0 Z" /></g><g
       transform="translate(418.2627,288.9883)"
       id="g24"><path
         id="path26"
         style="fill:#2053a3;fill-opacity:1;fill-rule:nonzero;stroke:none"
         d="m 0,0 8.353,22.818 h 9.41 L 26.745,0 H 17.78 L 13.266,13.79 8.56,0 Z" /></g><g
       id="g28"><g
         clip-path="url(#clipPath34)"
         id="g30"><g
           transform="translate(388.4297,324.5913)"
           id="g36"><path
             id="path38"
             style="fill:#2053a3;fill-opacity:1;fill-rule:evenodd;stroke:none"
             d="m 0,0 c -13.468,3.067 -23.192,11.599 -23.192,21.595 0,1.247 0.153,2.475 0.445,3.67 6.563,1.782 23.782,4.43 26.932,2.34 C 6.255,26.39 2.227,9.999 0,0" /></g><g
           transform="translate(433.2334,349.8604)"
           id="g40"><path
             id="path42"
             style="fill:#2053a3;fill-opacity:1;fill-rule:evenodd;stroke:none"
             d="m 0,0 c 0.299,-1.197 0.447,-2.427 0.447,-3.674 0,-10.017 -9.765,-18.561 -23.273,-21.617 -2.229,10.006 -6.251,26.413 -4.186,27.627 C -23.864,4.424 -6.572,1.779 0,0" /></g><g
           transform="translate(399.5005,369)"
           id="g44"><path
             id="path46"
             style="fill:#2053a3;fill-opacity:1;fill-rule:evenodd;stroke:none"
             d="m 0,0 c 14.747,-0.012 27.357,-6.295 32.137,-15.051 -5.502,0.856 -30.989,6.976 -30.706,1.924 v -32.48 c -0.486,-0.016 -0.977,-0.026 -1.471,-0.026 -0.521,0 -1.04,0.01 -1.555,0.026 v 32.48 c 0.283,5.046 -25.083,-1.051 -30.618,-1.919 4.776,8.751 17.386,15.034 32.132,15.046 z" /></g><g
           transform="translate(329.8442,232.665)"
           id="g48"><path
             id="path50"
             style="fill:#2053a3;fill-opacity:1;fill-rule:nonzero;stroke:none"
             d="m 0,0 c -0.978,-0.504 -3.136,-1.044 -5.867,-1.044 -7.212,0 -11.596,4.55 -11.596,11.462 0,7.482 5.191,12.001 12.136,12.001 2.732,0 4.685,-0.575 5.528,-1.011 l -0.908,-3.305 c -1.081,0.473 -2.563,0.876 -4.45,0.876 -4.618,0 -7.957,-2.897 -7.957,-8.36 0,-4.988 2.93,-8.19 7.923,-8.19 1.685,0 3.437,0.336 4.516,0.842 z" /></g><g
           transform="translate(352.6636,243.5879)"
           id="g52"><path
             id="path54"
             style="fill:#2053a3;fill-opacity:1;fill-rule:nonzero;stroke:none"
             d="m 0,0 c 0,-7.62 -4.617,-11.967 -10.888,-11.967 -6.406,0 -10.45,4.889 -10.45,11.563 0,6.977 4.384,11.9 10.788,11.9 C -3.907,11.496 0,6.471 0,0 m -16.954,-0.338 c 0,-4.618 2.324,-8.326 6.303,-8.326 4.011,0 6.27,3.743 6.27,8.495 0,4.28 -2.123,8.36 -6.27,8.36 -4.111,0 -6.303,-3.841 -6.303,-8.529" /></g><g
           transform="translate(375.417,241.2617)"
           id="g56"><path
             id="path58"
             style="fill:#2053a3;fill-opacity:1;fill-rule:nonzero;stroke:none"
             d="M 0,0 C -0.135,2.935 -0.303,6.473 -0.269,9.574 H -0.371 C -1.113,6.776 -2.055,3.708 -3.068,0.844 L -6.37,-9.001 h -3.203 l -3.034,9.71 c -0.876,2.897 -1.686,5.998 -2.292,8.865 h -0.068 c -0.101,-3.001 -0.236,-6.609 -0.405,-9.709 l -0.505,-9.135 h -3.877 l 1.518,22.719 h 5.46 l 2.968,-9.134 c 0.807,-2.664 1.516,-5.36 2.089,-7.888 h 0.1 c 0.606,2.461 1.384,5.259 2.26,7.921 l 3.133,9.101 H 3.17 L 4.484,-9.27 H 0.44 Z" /></g><g
           transform="translate(403.2949,241.2617)"
           id="g60"><path
             id="path62"
             style="fill:#2053a3;fill-opacity:1;fill-rule:nonzero;stroke:none"
             d="M 0,0 C -0.135,2.935 -0.304,6.473 -0.27,9.574 H -0.372 C -1.112,6.776 -2.055,3.708 -3.069,0.844 l -3.303,-9.845 h -3.202 l -3.036,9.71 c -0.876,2.897 -1.683,5.998 -2.291,8.865 h -0.067 c -0.103,-3.001 -0.237,-6.609 -0.404,-9.709 l -0.506,-9.135 h -3.877 l 1.516,22.719 h 5.462 l 2.966,-9.134 c 0.809,-2.664 1.516,-5.36 2.091,-7.888 h 0.101 c 0.606,2.461 1.381,5.259 2.259,7.921 l 3.134,9.101 H 3.167 L 4.484,-9.27 H 0.439 Z" /></g><g
           transform="translate(416.1016,254.7119)"
           id="g64"><path
             id="path66"
             style="fill:#2053a3;fill-opacity:1;fill-rule:nonzero;stroke:none"
             d="m 0,0 v -13.248 c 0,-4.45 1.854,-6.506 4.652,-6.506 3,0 4.787,2.056 4.787,6.506 V 0 h 4.147 v -12.977 c 0,-7.013 -3.608,-10.114 -9.069,-10.114 -5.257,0 -8.662,2.933 -8.662,10.08 l 0,13.011 z" /></g><g
           transform="translate(434.4395,231.9922)"
           id="g68"><path
             id="path70"
             style="fill:#2053a3;fill-opacity:1;fill-rule:nonzero;stroke:none"
             d="m 0,0 v 22.719 h 4.72 l 5.866,-9.74 c 1.518,-2.53 2.829,-5.16 3.875,-7.62 h 0.068 c -0.27,3.034 -0.369,5.967 -0.369,9.439 v 7.921 h 3.842 V 0 H 13.72 L 7.788,10.011 c -1.45,2.461 -2.967,5.259 -4.08,7.821 l -0.1,-0.034 C 3.774,14.865 3.81,11.866 3.81,8.124 V 0 Z" /></g><path
           id="path72"
           style="fill:#2053a3;fill-opacity:1;fill-rule:nonzero;stroke:none"
           d="m 461.371,231.993 h -4.147 v 22.719 h 4.147 z" /><g
           transform="translate(482.4082,232.665)"
           id="g74"><path
             id="path76"
             style="fill:#2053a3;fill-opacity:1;fill-rule:nonzero;stroke:none"
             d="m 0,0 c -0.978,-0.504 -3.139,-1.044 -5.868,-1.044 -7.212,0 -11.595,4.55 -11.595,11.462 0,7.482 5.191,12.001 12.138,12.001 2.727,0 4.684,-0.575 5.525,-1.011 l -0.91,-3.305 c -1.081,0.473 -2.561,0.876 -4.449,0.876 -4.619,0 -7.958,-2.897 -7.958,-8.36 0,-4.988 2.934,-8.19 7.926,-8.19 1.682,0 3.438,0.336 4.515,0.842 z" /></g><g
           transform="translate(490.7334,238.4297)"
           id="g78"><path
             id="path80"
             style="fill:#2053a3;fill-opacity:1;fill-rule:nonzero;stroke:none"
             d="M 0,0 -1.956,-6.439 H -6.238 L 1.044,16.283 H 6.336 L 13.72,-6.439 H 9.271 L 7.213,0 Z M 6.504,3.135 4.718,8.732 C 4.277,10.114 3.906,11.664 3.572,12.977 H 3.503 C 3.165,11.664 2.833,10.082 2.424,8.732 L 0.673,3.135 Z" /></g><g
           transform="translate(509.2383,251.2402)"
           id="g82"><path
             id="path84"
             style="fill:#2053a3;fill-opacity:1;fill-rule:nonzero;stroke:none"
             d="M 0,0 H -6.477 V 3.471 H 10.687 V 0 H 4.146 V -19.248 H 0 Z" /></g><path
           id="path86"
           style="fill:#2053a3;fill-opacity:1;fill-rule:nonzero;stroke:none"
           d="m 526.73,231.993 h -4.143 v 22.719 h 4.143 z" /><g
           transform="translate(551.6416,243.5879)"
           id="g88"><path
             id="path90"
             style="fill:#2053a3;fill-opacity:1;fill-rule:nonzero;stroke:none"
             d="m 0,0 c 0,-7.62 -4.618,-11.967 -10.888,-11.967 -6.407,0 -10.449,4.889 -10.449,11.563 0,6.977 4.381,11.9 10.787,11.9 C -3.909,11.496 0,6.471 0,0 m -16.956,-0.338 c 0,-4.618 2.325,-8.326 6.304,-8.326 4.011,0 6.271,3.743 6.271,8.495 0,4.28 -2.124,8.36 -6.271,8.36 -4.113,0 -6.304,-3.841 -6.304,-8.529" /></g><g
           transform="translate(555.2129,231.9922)"
           id="g92"><path
             id="path94"
             style="fill:#2053a3;fill-opacity:1;fill-rule:nonzero;stroke:none"
             d="m 0,0 v 22.719 h 4.721 l 5.866,-9.74 c 1.515,-2.53 2.83,-5.16 3.875,-7.62 h 0.068 c -0.268,3.034 -0.37,5.967 -0.37,9.439 v 7.921 h 3.844 V 0 H 13.72 L 7.789,10.011 C 6.341,12.472 4.819,15.27 3.708,17.832 L 3.605,17.798 C 3.776,14.865 3.813,11.866 3.813,8.124 V 0 Z" /></g><g
           transform="translate(577.8965,236.5098)"
           id="g96"><path
             id="path98"
             style="fill:#2053a3;fill-opacity:1;fill-rule:nonzero;stroke:none"
             d="m 0,0 c 1.349,-0.778 3.374,-1.449 5.497,-1.449 2.664,0 4.15,1.246 4.15,3.1 0,1.719 -1.151,2.731 -4.049,3.777 -3.744,1.345 -6.135,3.336 -6.135,6.606 0,3.706 3.101,6.539 8.023,6.539 2.461,0 4.281,-0.538 5.459,-1.144 l -1.008,-3.338 c -0.808,0.436 -2.395,1.077 -4.518,1.077 -2.629,0 -3.776,-1.416 -3.776,-2.73 0,-1.753 1.316,-2.563 4.35,-3.743 3.944,-1.482 5.866,-3.47 5.866,-6.742 0,-3.639 -2.768,-6.843 -8.63,-6.843 -2.395,0 -4.888,0.707 -6.138,1.451 z" /></g><g
           transform="translate(214.4854,232.0869)"
           id="g100"><path
             id="path102"
             style="fill:#2053a3;fill-opacity:1;fill-rule:evenodd;stroke:none"
             d="m 0,0 v 16.088 h -6.485 v 6.689 h 22.06 V 16.088 H 9.285 V 0 Z" /></g><g
           transform="translate(258.502,232.0869)"
           id="g104"><path
             id="path106"
             style="fill:#2053a3;fill-opacity:1;fill-rule:evenodd;stroke:none"
             d="m 0,0 v 16.088 h -6.483 v 6.689 H 15.578 V 16.088 H 9.285 V 0 Z" /></g><g
           transform="translate(227.9536,232.0586)"
           id="g108"><path
             id="path110"
             style="fill:#2053a3;fill-opacity:1;fill-rule:evenodd;stroke:none"
             d="M 0,0 8.344,22.776 17.841,22.78 26.699,0 H 17.753 L 13.144,13.771 8.551,0 Z" /></g><g
           transform="translate(271.9526,232.0635)"
           id="g112"><path
             id="path114"
             style="fill:#2053a3;fill-opacity:1;fill-rule:evenodd;stroke:none"
             d="m 0,0 8.338,22.776 h 9.396 L 26.697,0 H 17.749 L 13.245,13.767 8.546,0 Z" /></g></g></g></g></svg>